<?xml version="1.0" standalone="no"?>
<!DOCTYPE svg PUBLIC "-//W3C//DTD SVG 20010904//EN"
 "http://www.w3.org/TR/2001/REC-SVG-20010904/DTD/svg10.dtd">
<svg version="1.0" xmlns="http://www.w3.org/2000/svg"
 width="1366.000000pt" height="768.000000pt" viewBox="0 0 1366.000000 768.000000"
 preserveAspectRatio="xMidYMid meet">

<g transform="translate(0.000000,768.000000) scale(0.100000,-0.100000)"
fill="#000000" stroke="none">
<path d="M6343 5003 c-10 -4 -13 -223 -13 -1049 l0 -1044 268 2 267 3 3 1041
2 1042 -22 6 c-27 7 -488 7 -505 -1z"/>
<path d="M673 4883 c-10 -4 -13 -95 -13 -409 0 -223 4 -404 9 -404 8 0 109
105 372 388 186 201 173 180 177 293 6 151 28 139 -276 138 -141 0 -263 -3
-269 -6z"/>
<path d="M1902 4798 c-99 -104 -330 -350 -442 -473 -40 -44 -112 -120 -159
-170 -48 -49 -102 -108 -120 -130 -19 -22 -94 -103 -166 -180 -73 -77 -182
-194 -244 -260 l-111 -120 3 -275 2 -275 264 -3 c190 -2 267 1 278 9 11 10 14
55 13 238 0 124 -1 232 0 239 0 12 184 214 201 220 10 4 39 -29 118 -132 29
-39 66 -87 82 -106 55 -67 125 -156 181 -230 32 -41 69 -88 83 -104 14 -16 25
-32 25 -35 0 -4 20 -28 43 -54 l44 -47 311 0 c252 0 312 3 312 13 0 7 -15 31
-33 53 -18 21 -48 59 -66 84 -17 25 -50 68 -72 95 -35 45 -172 222 -239 310
-14 18 -54 71 -90 117 -35 45 -87 113 -115 149 -55 72 -159 206 -189 245 -16
18 -18 29 -10 48 5 13 68 86 140 163 72 76 185 197 251 268 65 72 179 194 251
272 73 78 132 147 132 152 0 8 -94 11 -294 11 l-295 0 -89 -92z"/>
<path d="M3335 4455 c-112 -15 -191 -37 -271 -74 -122 -57 -261 -166 -306
-240 -12 -20 -28 -42 -34 -48 -17 -18 -68 -129 -81 -178 -27 -99 -33 -142 -33
-233 0 -288 117 -505 352 -655 177 -113 387 -157 628 -131 197 21 347 85 492
207 92 77 192 238 223 357 60 233 26 457 -101 647 -134 201 -351 322 -636 353
-112 12 -114 12 -233 -5z m267 -444 c126 -56 188 -167 188 -339 0 -51 -4 -100
-9 -110 -5 -9 -14 -35 -21 -57 -7 -22 -24 -55 -38 -73 -35 -45 -115 -102 -145
-102 -14 0 -29 -4 -32 -10 -3 -5 -36 -10 -73 -10 -103 0 -176 32 -240 105 -61
69 -77 127 -76 270 0 103 3 126 23 166 44 91 100 140 211 182 8 3 45 6 82 6
52 1 79 -5 130 -28z"/>
<path d="M5068 4455 c-157 -18 -270 -41 -320 -66 -10 -5 -24 -9 -32 -9 -18 0
-146 -66 -165 -85 -13 -13 -11 -24 23 -92 40 -83 130 -266 132 -271 1 -2 37
15 80 36 95 48 126 58 224 77 186 37 335 -5 404 -113 29 -45 41 -101 23 -107
-6 -3 -95 -7 -197 -9 -296 -8 -396 -25 -550 -93 -134 -59 -221 -200 -221 -356
0 -180 69 -306 213 -392 32 -19 77 -40 101 -46 23 -7 48 -17 56 -23 20 -16
367 -14 383 2 6 6 20 12 30 12 41 0 154 76 189 127 17 24 34 41 40 38 5 -4 9
-44 9 -91 l0 -84 248 2 247 3 3 415 c3 598 -14 717 -131 878 -54 75 -141 141
-237 179 -14 6 -36 15 -50 21 -63 26 -316 67 -373 61 -7 -1 -64 -8 -129 -14z
m380 -992 c3 -69 -9 -100 -59 -157 -93 -107 -290 -110 -382 -8 -13 15 -19 37
-19 77 -1 69 19 100 83 133 41 21 54 22 209 20 l165 -3 3 -62z"/>
<path d="M7720 4455 c-176 -20 -294 -53 -428 -117 -46 -22 -86 -46 -88 -52 -3
-7 34 -90 81 -184 96 -190 85 -181 157 -131 14 11 32 19 39 19 7 0 32 9 55 21
72 34 280 59 342 41 20 -6 48 -13 62 -16 53 -11 118 -65 145 -121 27 -59 32
-95 13 -96 -7 0 -61 0 -120 1 -186 2 -514 -35 -543 -61 -5 -5 -18 -9 -29 -9
-10 0 -34 -11 -52 -25 -18 -14 -37 -25 -42 -25 -18 0 -119 -105 -134 -140 -39
-87 -43 -108 -43 -210 1 -87 5 -116 25 -169 28 -72 101 -160 154 -185 18 -8
39 -22 45 -30 18 -21 165 -63 259 -74 81 -10 184 0 295 27 55 13 145 70 176
111 36 49 51 63 58 57 3 -3 6 -43 7 -89 l1 -83 243 -3 c190 -2 242 0 242 10 0
7 0 234 0 505 l0 491 -24 84 c-36 121 -71 183 -147 259 -71 71 -194 142 -281
161 -198 44 -310 51 -468 33z m390 -995 c0 -77 -8 -96 -60 -153 -63 -69 -174
-101 -270 -76 -27 7 -50 16 -50 21 0 4 -6 8 -13 8 -43 0 -84 105 -65 163 13
39 46 77 67 77 9 0 25 7 35 15 16 12 56 15 188 15 l168 0 0 -70z"/>
</g>
</svg>
